<?xml version="1.0" encoding="UTF-8" standalone="no"?>
<!-- Created with Inkscape (http://www.inkscape.org/) -->

<svg
   xmlns:dc="http://purl.org/dc/elements/1.1/"
   xmlns:cc="http://creativecommons.org/ns#"
   xmlns:rdf="http://www.w3.org/1999/02/22-rdf-syntax-ns#"
   xmlns:svg="http://www.w3.org/2000/svg"
   xmlns="http://www.w3.org/2000/svg"
   xmlns:sodipodi="http://sodipodi.sourceforge.net/DTD/sodipodi-0.dtd"
   xmlns:inkscape="http://www.inkscape.org/namespaces/inkscape"
   width="210mm"
   height="297mm"
   viewBox="0 0 744.09448819 1052.3622047"
   id="svg2"
   version="1.1"
   inkscape:version="0.92.2 (5c3e80d, 2017-08-06)"
   sodipodi:docname="Art.svg"
   inkscape:export-filename="/home/hidekiw/Dropbox/Projetos Software/Urban Fix/Aplicativo/Draw/Art.svg.png"
   inkscape:export-xdpi="90"
   inkscape:export-ydpi="90">
  <defs
     id="defs4" />
  <sodipodi:namedview
     id="base"
     pagecolor="#ffffff"
     bordercolor="#666666"
     borderopacity="1.0"
     inkscape:pageopacity="0.0"
     inkscape:pageshadow="2"
     inkscape:zoom="0.7"
     inkscape:cx="301.50659"
     inkscape:cy="636.58809"
     inkscape:document-units="px"
     inkscape:current-layer="layer4"
     showgrid="false"
     inkscape:window-width="1366"
     inkscape:window-height="713"
     inkscape:window-x="0"
     inkscape:window-y="27"
     inkscape:window-maximized="1" />
  <metadata
     id="metadata7">
    <rdf:RDF>
      <cc:Work
         rdf:about="">
        <dc:format>image/svg+xml</dc:format>
        <dc:type
           rdf:resource="http://purl.org/dc/dcmitype/StillImage" />
        <dc:title />
      </cc:Work>
    </rdf:RDF>
  </metadata>
  <g
     inkscape:label="Layer 1"
     inkscape:groupmode="layer"
     id="layer1" />
  <g
     inkscape:groupmode="layer"
     id="layer2"
     inkscape:label="BackGround">
    <path
       id="path4137"
       style="opacity:1;fill:#00cbfa;fill-opacity:1;stroke:#1e3a78;stroke-width:9.59599972;stroke-linejoin:bevel;stroke-miterlimit:4;stroke-dasharray:none;stroke-opacity:1"
       d="M 657.14288,528.0765 A 252.85715,252.85715 0 0 1 404.28573,780.93365 252.85715,252.85715 0 0 1 151.42857,528.0765 252.85715,252.85715 0 0 1 404.28573,275.21935 252.85715,252.85715 0 0 1 657.14288,528.0765 Z"
       inkscape:connector-curvature="0"
       inkscape:export-xdpi="299.98447"
       inkscape:export-ydpi="299.98447" />
    <path
       inkscape:connector-curvature="0"
       style="fill:#1e3a78;fill-opacity:1"
       d="m 322.45852,431.89072 0,86 0,86 -5.5,0 -5.5,0 0,-51.5 0,-51.5 -22,0 -22,0 0,62.04883 0,62.05078 -5.75,-0.30078 -5.75,-0.29883 -0.27344,-18.25 -0.27148,-18.25 -35.46485,0 -35.46484,0 -0.26367,36.25 -0.20703,28.75781 A 252.85715,252.85715 0 0 0 406.88625,786.74814 252.85715,252.85715 0 0 0 625.25149,660.89072 l -0.79297,0 0,-38 0,-38 -31.5,0 -31.5,0 0,22.5 0,22.5 -10.5,0 -10.5,0 0,-76 0,-76 -27.5,0 -27.5,0 0,25 0,25 -16,0 -16,0 0,28.5 0,28.5 -14.5,0 -14.5,0 0,-76.5 0,-76.5 -51,0 -51,0 z m 35,11 6,0 6,0 0,15 0,15 -6,0 -6,0 0,-15 0,-15 z m 22,0 6,0 6,0 0,15 0,15 -6,0 -6,0 0,-15 0,-15 z m -44.5,0.5 6,0 6,0 0,14.5 0,14.5 -6.27734,0.29883 -6.27735,0.29687 0.27735,-14.79687 0.27734,-14.79883 z m -0.5,39.5 6.5,0 6.5,0 0,14.5 0,14.5 -6.5,0 -6.5,0 0,-14.5 0,-14.5 z m 23,0 6,0 6,0 0,14.5 0,14.5 -6,0 -6,0 0,-14.5 0,-14.5 z m 134,0 6,0 6,0 0,15 0,15 -6,0 -6,0 0,-15 0,-15 z m 17,0 6,0 6,0 0,15 0,15 -6,0 -6,0 0,-15 0,-15 z m -236.5,23.5 6,0 6,0 0,14.5 0,14.5 -5.76172,0.29883 c -4.13546,0.21551 -5.90925,-0.0794 -6.28125,-1.04883 -0.2851,-0.74289 -0.39251,-7.40353 -0.23828,-14.80078 l 0.28125,-13.44922 z m 23,0 6,0 6,0 0,14.5 0,14.5 -5.76172,0.29883 c -4.13546,0.21551 -5.90925,-0.0794 -6.28125,-1.04883 -0.2851,-0.74289 -0.39251,-7.40353 -0.23828,-14.80078 l 0.28125,-13.44922 z m 196.5,12.5 6,0 6,0 0,14.5 0,14.5 -6,0 -6,0 0,-14.5 0,-14.5 z m -157,3 6.5,0 6.5,0 0,14.5 0,14.5 -6.5,0 -6.5,0 0,-14.5 0,-14.5 z m -63,24 6.5,0 6.5,0 0,14.5 0,14.5 -6.5,0 -6.5,0 0,-14.5 0,-14.5 z m 297.5,44.5 6,0 6,0 0.27734,14.75 0.27539,14.75 -6.05664,0 c -4.04935,0 -6.22503,-0.43154 -6.55859,-1.30078 -0.27451,-0.71525 -0.37298,-7.35275 -0.21875,-14.75 l 0.28125,-13.44922 z m 17,0 6,0 6,0 0.27734,14.75 0.27539,14.75 -6.05664,0 c -4.04935,0 -6.22503,-0.43154 -6.55859,-1.30078 -0.27451,-0.71525 -0.37298,-7.35275 -0.21875,-14.75 l 0.28125,-13.44922 z m -392.5,6.5 6,0 6,0 0,14.5 0,14.5 -6,0 -6,0 0,-14.5 0,-14.5 z m 21,0 6,0 6,0 0,14.5 0,14.5 -6,0 -6,0 0,-14.5 0,-14.5 z m 155,15 6,0 6,0 0,15 0,15 -6,0 -6,0 0,-15 0,-15 z m -22.5,0.5 6,0 6,0 0,14.5 0,14.5 -6.27734,0.29883 -6.27735,0.29687 0.27735,-14.79687 0.27734,-14.79883 z m 221.5,13.5 6.5,0 6.5,0 0,14.5 0,14.5 -6.5,0 -6.5,0 0,-14.5 0,-14.5 z m -330,21 6.5,0 6.5,0 0,14.5 0,14.5 -6.5,0 -6.5,0 0,-14.5 0,-14.5 z m 17,0 6.5,0 6.5,0 0,14.5 0,14.5 -6.5,0 -6.5,0 0,-14.5 0,-14.5 z m 91,5 6.5,0 6.5,0 0,14.5 0,14.5 -6.5,0 -6.5,0 0,-14.5 0,-14.5 z m 178,26 6,0 6,0 0,14.5 0,14.5 -6,0 -6,0 0,-14.5 0,-14.5 z m 17,0 6,0 6,0 0,14.5 0,14.5 -6,0 -6,0 0,-14.5 0,-14.5 z m -303,4 6.5,0 6.5,0 0,14.5 0,14.5 -6.5,0 -6.5,0 0,-14.5 0,-14.5 z m 286,31 6,0 6,0 0,14.5 0,14.5 -6,0 -6,0 0,-14.5 0,-14.5 z m -123.5,5.5 6,0 6,0 0,14.5 0,14.5 -6.27734,0.29883 -6.27735,0.29687 0.27735,-14.79687 0.27734,-14.79883 z m 17,0 6,0 6,0 0.27734,14.75 0.27539,14.75 -6.05664,0 c -4.04935,0 -6.22503,-0.43154 -6.55859,-1.30078 -0.27451,-0.71525 -0.37298,-7.35275 -0.21875,-14.75 l 0.28125,-13.44922 z m -17,35 6,0 6,0 0,14.5 0,14.5 -6.27734,0.29883 -6.27735,0.29687 0.27735,-14.79687 0.27734,-14.79883 z"
       id="path4266-5"
       inkscape:export-xdpi="299.98447"
       inkscape:export-ydpi="299.98447" />
  </g>
  <g
     inkscape:groupmode="layer"
     id="layer4"
     inkscape:label="key">
    <path
       style="display:inline;fill:#e83724;fill-opacity:1;stroke:#facf88;stroke-width:3;stroke-miterlimit:4;stroke-dasharray:none;stroke-opacity:1"
       d="m 361.90465,772.83931 c -1.81292,-0.27817 -3.89717,-1.34006 -5.26903,-2.68453 -3.02938,-2.96888 -3.65132,-7.52618 -1.54093,-11.29129 0.38608,-0.68885 4.19251,-4.57633 16.46469,-16.81528 l 15.96249,-15.91931 6.64294,6.59961 6.64293,6.59958 -15.99401,15.90347 c -16.93614,16.84029 -16.59265,16.52594 -18.82033,17.22365 -1.03099,0.32292 -3.17489,0.52429 -4.08875,0.3841 z m 70.91983,-0.20987 c -6.09374,-0.99792 -11.1969,-4.73288 -13.97645,-10.22927 -1.25995,-2.49144 -2.02474,-5.82824 -2.02474,-8.83397 0,-1.36765 0.50512,-4.29648 0.91837,-5.32497 l 0.25512,-0.63493 -19.36202,-19.28665 c -16.01515,-15.95286 -19.41758,-19.26871 -19.68363,-19.1828 -4.76538,1.53905 -9.52225,1.29957 -13.99097,-0.70434 -9.28464,-4.16355 -13.48042,-14.87673 -9.49774,-24.25086 0.14033,-0.33029 0.30575,-0.6005 0.36759,-0.6005 0.0618,0 3.11837,2.98114 6.79231,6.62481 6.24308,6.19163 6.74295,6.64896 7.64476,6.99382 1.27921,0.48919 3.08264,0.5914 4.28628,0.24294 3.00245,-0.86918 4.92037,-3.97036 4.32763,-6.99751 -0.39722,-2.0287 -0.67025,-2.36135 -7.69563,-9.37613 l -6.50271,-6.49287 1.15019,-0.46016 c 1.33196,-0.53291 3.13786,-1.00515 4.78666,-1.25171 3.99591,-0.59751 8.72689,0.54604 12.59327,3.04395 1.33275,0.86104 4.08626,3.59859 4.97927,4.9504 2.21361,3.35087 3.26887,6.84645 3.28745,10.88971 0.009,1.99262 -0.20031,3.35312 -0.83309,5.41298 l -0.26083,0.84888 19.3217,19.24084 19.32166,19.24082 0.85247,-0.25972 c 3.85348,-1.17402 8.03818,-1.0977 11.86606,0.21643 2.84165,0.97556 4.89648,2.27372 7.17603,4.53361 2.95355,2.92812 4.52254,5.99823 5.29279,10.35675 0.52093,2.94774 0.0492,6.72791 -1.21134,9.7028 l -0.43875,1.03554 -6.41332,-6.35743 c -3.52731,-3.49659 -6.70278,-6.5546 -7.05658,-6.7956 -0.35378,-0.24097 -1.14143,-0.60196 -1.75033,-0.80221 -3.14766,-1.0351 -6.75431,0.86822 -7.73186,4.08027 -0.50192,1.64925 -0.1871,3.90139 0.7341,5.25087 0.19313,0.28284 3.25153,3.41324 6.7966,6.9564 3.9457,3.94361 6.38488,6.49638 6.28914,6.58203 -0.28128,0.2516 -2.33766,0.9953 -3.67343,1.32855 -1.45276,0.36239 -5.50744,0.54317 -6.93603,0.30923 z m -18.61596,-59.86372 c -1.74601,-1.74039 -3.1746,-3.23414 -3.1746,-3.31951 0,-0.0854 3.61719,-3.75999 8.0382,-8.16582 4.42101,-4.40584 8.13637,-8.15474 8.25631,-8.3309 0.11995,-0.17614 0.87195,-1.5814 1.67107,-3.1228 5.4716,-10.55362 5.18173,-10.03867 5.8505,-10.39243 0.89005,-0.47081 4.66601,-2.41821 7.94507,-4.09759 1.68051,-0.8607 3.50213,-1.80836 4.04797,-2.1059 l 0.99251,-0.541 3.30187,3.27813 3.30187,3.27813 -2.18975,4.20938 c -1.20435,2.31514 -2.78818,5.3624 -3.51965,6.77164 -1.22543,2.36098 -1.38445,2.5913 -2.02423,2.93168 -1.01837,0.54181 -5.88094,3.05289 -9.29791,4.80158 -1.63632,0.83739 -3.15602,1.65036 -3.37714,1.8066 -0.22111,0.15621 -3.98422,3.85672 -8.36244,8.22327 -4.37821,4.36656 -8.03345,7.93935 -8.12274,7.93951 -0.0893,1.6e-4 -1.59087,-1.42363 -3.33691,-3.16397 z"
       id="path4532"
       inkscape:connector-curvature="0"
       inkscape:export-xdpi="299.98447"
       inkscape:export-ydpi="299.98447" />
  </g>
  <g
     inkscape:groupmode="layer"
     id="layer3"
     inkscape:label="text">
    <text
       xml:space="preserve"
       style="font-style:normal;font-variant:normal;font-weight:normal;font-stretch:normal;font-size:109.21289062px;line-height:0%;font-family:Mingzat;-inkscape-font-specification:Mingzat;letter-spacing:0px;word-spacing:0px;fill:#ffffff;fill-opacity:1;stroke:none;stroke-width:27.30322266;stroke-linecap:butt;stroke-linejoin:miter;stroke-miterlimit:4;stroke-dasharray:none;stroke-opacity:0.97647059"
       x="233.83029"
       y="573.63098"
       id="text4140"
       transform="scale(0.86865238,1.1512085)"
       inkscape:export-xdpi="299.98447"
       inkscape:export-ydpi="299.98447"><tspan
         sodipodi:role="line"
         id="tspan4142"
         x="233.83029"
         y="573.63098"
         style="font-style:normal;font-variant:normal;font-weight:bold;font-stretch:normal;line-height:814.65002441;font-family:Impact;-inkscape-font-specification:'Impact Bold';baseline-shift:baseline;fill:#ffffff;stroke:none;stroke-width:16.48849869;stroke-miterlimit:4;stroke-dasharray:none;stroke-opacity:0.97647059"
         transform="matrix(1.3297935,0,0,2.0619653,-97.084813,-639.48328)">URB     N FIX</tspan></text>
    <text
       xml:space="preserve"
       style="font-style:normal;font-weight:normal;font-size:37.5px;line-height:1.25;font-family:sans-serif;letter-spacing:0px;word-spacing:0px;fill:#000000;fill-opacity:1;stroke:none;stroke-width:0.9375"
       x="392.83698"
       y="566.89716"
       id="text3836"><tspan
         sodipodi:role="line"
         id="tspan3834"
         x="392.83698"
         y="600.07587"
         style="stroke-width:0.9375" /></text>
  </g>
  <g
     inkscape:groupmode="layer"
     id="layer6"
     inkscape:label="city"
     style="display:inline" />
  <g
     inkscape:groupmode="layer"
     id="layer5"
     inkscape:label="gps">
    <path
       style="fill:#fbd957;fill-opacity:1;stroke:#e14a14;stroke-width:3.36894178;stroke-miterlimit:4;stroke-dasharray:none;stroke-opacity:1"
       d="m 405.97007,662.82123 c 5.68857,-0.16615 13.10293,-1.14044 17.69703,-2.32551 9.1204,-2.35261 13.75967,-5.82279 13.41551,-10.0348 -0.32406,-3.96586 -4.91529,-6.75183 -13.79252,-8.36932 -1.49955,-0.27323 -3.35921,-0.56446 -4.13258,-0.64715 -0.77338,-0.0827 -1.57734,-0.1919 -1.7866,-0.24268 -0.27284,-0.0662 -0.8193,0.46513 -1.93102,1.87865 l -1.55054,1.9709 2.50801,0.4834 c 4.80166,0.9255 9.78756,2.65247 11.84195,4.10171 l 0.80976,0.57121 -0.77762,0.38305 c -2.7204,1.34001 -9.53523,2.28866 -17.92507,2.49527 -7.90349,0.19462 -21.84936,-0.61794 -27.11333,-1.57978 -2.42046,-0.44227 -5.14758,-1.24939 -5.929,-1.75476 -0.46081,-0.29801 -0.45357,-0.31632 0.34467,-0.87608 1.80264,-1.2641 7.63773,-3.17841 11.8138,-3.87576 1.10607,-0.18469 2.06172,-0.37743 2.12366,-0.42833 0.0619,-0.0511 -0.50332,-0.87679 -1.25604,-1.83538 -0.7528,-0.95859 -1.38573,-1.76897 -1.40653,-1.80087 -0.0208,-0.0318 -1.39328,0.0598 -3.04994,0.20401 -7.43013,0.64633 -12.33412,2.10106 -15.00553,4.45128 -1.6051,1.4121 -2.1238,2.47805 -2.10963,4.33527 0.0265,3.46701 3.81474,6.59897 11.06574,9.14886 7.86815,2.76668 16.64459,4.02444 26.14571,3.74695 z m -1.97916,-13.96307 c 0.50946,-0.66077 7.39242,-9.42837 15.29544,-19.4836 7.903,-10.05521 14.92309,-19.16613 15.6002,-20.24644 1.44901,-2.3119 2.87809,-5.79775 3.43666,-8.38274 0.60532,-2.8015 0.5142,-7.9824 -0.1909,-10.85334 -3.03129,-12.34221 -14.27516,-21.80087 -29.09131,-24.47242 -3.74698,-0.67562 -9.71795,-0.76485 -13.45562,-0.2011 -9.97832,1.50503 -18.44505,6.19278 -23.89492,13.22983 -1.10962,1.43274 -2.68767,4.22939 -3.51524,6.22963 -1.36706,3.3043 -1.83054,5.80086 -1.80721,9.73487 0.0232,3.92652 0.51616,6.39708 1.95337,9.79105 1.22708,2.89778 2.49754,4.85965 6.17328,9.53295 1.8004,2.28899 8.91244,11.39507 15.80455,20.23572 6.89211,8.84066 12.58381,16.07685 12.64822,16.08042 0.0644,0.003 0.534,-0.53408 1.04347,-1.19484 z m -5.79132,-38.70851 c -2.16723,-0.46086 -5.98226,-2.11336 -7.58517,-3.28556 -3.14703,-2.30142 -5.322,-5.17922 -6.33856,-8.38683 -0.68888,-2.17366 -0.71014,-5.46071 -0.0492,-7.59425 1.74738,-5.64008 6.84171,-9.82444 13.62781,-11.19358 2.58517,-0.52154 6.53996,-0.46244 9.13349,0.13653 6.81377,1.57362 11.94794,5.8897 13.80294,11.60357 0.70321,2.16609 0.72902,5.44117 0.0598,7.59441 -1.92695,6.20042 -7.93186,10.66603 -15.51515,11.53802 -1.76947,0.20345 -5.16204,0.007 -7.13601,-0.41231 z"
       id="path4538"
       inkscape:connector-curvature="0"
       inkscape:export-xdpi="299.98447"
       inkscape:export-ydpi="299.98447" />
  </g>
</svg>
