<?xml version="1.0" encoding="UTF-8" standalone="no"?>
<!-- Created with Inkscape (http://www.inkscape.org/) -->

<svg
   xmlns:dc="http://purl.org/dc/elements/1.1/"
   xmlns:cc="http://creativecommons.org/ns#"
   xmlns:rdf="http://www.w3.org/1999/02/22-rdf-syntax-ns#"
   xmlns:svg="http://www.w3.org/2000/svg"
   xmlns="http://www.w3.org/2000/svg"
   xmlns:sodipodi="http://sodipodi.sourceforge.net/DTD/sodipodi-0.dtd"
   xmlns:inkscape="http://www.inkscape.org/namespaces/inkscape"
   width="210mm"
   height="297mm"
   viewBox="0 0 744.09448819 1052.3622047"
   id="svg2"
   version="1.1"
   inkscape:version="0.91 r13725"
   sodipodi:docname="icon-version2.svg"
   inkscape:export-filename="/home/hidekiw/Dropbox/Projetos Software/Urban Fix/Aplicativo/Draw/Art.svg.png"
   inkscape:export-xdpi="90"
   inkscape:export-ydpi="90">
  <defs
     id="defs4" />
  <sodipodi:namedview
     id="base"
     pagecolor="#ffffff"
     bordercolor="#666666"
     borderopacity="1.0"
     inkscape:pageopacity="0.0"
     inkscape:pageshadow="2"
     inkscape:zoom="0.7"
     inkscape:cx="353.08156"
     inkscape:cy="505.63756"
     inkscape:document-units="px"
     inkscape:current-layer="layer4"
     showgrid="false"
     inkscape:window-width="1366"
     inkscape:window-height="710"
     inkscape:window-x="0"
     inkscape:window-y="0"
     inkscape:window-maximized="1" />
  <metadata
     id="metadata7">
    <rdf:RDF>
      <cc:Work
         rdf:about="">
        <dc:format>image/svg+xml</dc:format>
        <dc:type
           rdf:resource="http://purl.org/dc/dcmitype/StillImage" />
        <dc:title></dc:title>
      </cc:Work>
    </rdf:RDF>
  </metadata>
  <g
     inkscape:label="Layer 1"
     inkscape:groupmode="layer"
     id="layer1" />
  <g
     inkscape:groupmode="layer"
     id="layer2"
     inkscape:label="BackGround">
    <path
       id="path4137"
       style="opacity:1;fill:#00cbfa;fill-opacity:1;stroke:#1e3a78;stroke-width:9.59599972;stroke-linejoin:bevel;stroke-miterlimit:4;stroke-dasharray:none;stroke-opacity:1"
       d="M 657.14288,528.0765 A 252.85715,252.85715 0 0 1 404.28573,780.93365 252.85715,252.85715 0 0 1 151.42857,528.0765 252.85715,252.85715 0 0 1 404.28573,275.21935 252.85715,252.85715 0 0 1 657.14288,528.0765 Z"
       inkscape:connector-curvature="0"
       inkscape:export-xdpi="299.98447"
       inkscape:export-ydpi="299.98447" />
    <path
       inkscape:connector-curvature="0"
       style="fill:#1e3a78;fill-opacity:1"
       d="m 322.45852,431.89072 0,86 0,86 -5.5,0 -5.5,0 0,-51.5 0,-51.5 -22,0 -22,0 0,62.04883 0,62.05078 -5.75,-0.30078 -5.75,-0.29883 -0.27344,-18.25 -0.27148,-18.25 -35.46485,0 -35.46484,0 -0.26367,36.25 -0.20703,28.75781 A 252.85715,252.85715 0 0 0 406.88625,786.74814 252.85715,252.85715 0 0 0 625.25149,660.89072 l -0.79297,0 0,-38 0,-38 -31.5,0 -31.5,0 0,22.5 0,22.5 -10.5,0 -10.5,0 0,-76 0,-76 -27.5,0 -27.5,0 0,25 0,25 -16,0 -16,0 0,28.5 0,28.5 -14.5,0 -14.5,0 0,-76.5 0,-76.5 -51,0 -51,0 z m 35,11 6,0 6,0 0,15 0,15 -6,0 -6,0 0,-15 0,-15 z m 22,0 6,0 6,0 0,15 0,15 -6,0 -6,0 0,-15 0,-15 z m -44.5,0.5 6,0 6,0 0,14.5 0,14.5 -6.27734,0.29883 -6.27735,0.29687 0.27735,-14.79687 0.27734,-14.79883 z m -0.5,39.5 6.5,0 6.5,0 0,14.5 0,14.5 -6.5,0 -6.5,0 0,-14.5 0,-14.5 z m 23,0 6,0 6,0 0,14.5 0,14.5 -6,0 -6,0 0,-14.5 0,-14.5 z m 134,0 6,0 6,0 0,15 0,15 -6,0 -6,0 0,-15 0,-15 z m 17,0 6,0 6,0 0,15 0,15 -6,0 -6,0 0,-15 0,-15 z m -236.5,23.5 6,0 6,0 0,14.5 0,14.5 -5.76172,0.29883 c -4.13546,0.21551 -5.90925,-0.0794 -6.28125,-1.04883 -0.2851,-0.74289 -0.39251,-7.40353 -0.23828,-14.80078 l 0.28125,-13.44922 z m 23,0 6,0 6,0 0,14.5 0,14.5 -5.76172,0.29883 c -4.13546,0.21551 -5.90925,-0.0794 -6.28125,-1.04883 -0.2851,-0.74289 -0.39251,-7.40353 -0.23828,-14.80078 l 0.28125,-13.44922 z m 196.5,12.5 6,0 6,0 0,14.5 0,14.5 -6,0 -6,0 0,-14.5 0,-14.5 z m -157,3 6.5,0 6.5,0 0,14.5 0,14.5 -6.5,0 -6.5,0 0,-14.5 0,-14.5 z m -63,24 6.5,0 6.5,0 0,14.5 0,14.5 -6.5,0 -6.5,0 0,-14.5 0,-14.5 z m 297.5,44.5 6,0 6,0 0.27734,14.75 0.27539,14.75 -6.05664,0 c -4.04935,0 -6.22503,-0.43154 -6.55859,-1.30078 -0.27451,-0.71525 -0.37298,-7.35275 -0.21875,-14.75 l 0.28125,-13.44922 z m 17,0 6,0 6,0 0.27734,14.75 0.27539,14.75 -6.05664,0 c -4.04935,0 -6.22503,-0.43154 -6.55859,-1.30078 -0.27451,-0.71525 -0.37298,-7.35275 -0.21875,-14.75 l 0.28125,-13.44922 z m -392.5,6.5 6,0 6,0 0,14.5 0,14.5 -6,0 -6,0 0,-14.5 0,-14.5 z m 21,0 6,0 6,0 0,14.5 0,14.5 -6,0 -6,0 0,-14.5 0,-14.5 z m 155,15 6,0 6,0 0,15 0,15 -6,0 -6,0 0,-15 0,-15 z m -22.5,0.5 6,0 6,0 0,14.5 0,14.5 -6.27734,0.29883 -6.27735,0.29687 0.27735,-14.79687 0.27734,-14.79883 z m 221.5,13.5 6.5,0 6.5,0 0,14.5 0,14.5 -6.5,0 -6.5,0 0,-14.5 0,-14.5 z m -330,21 6.5,0 6.5,0 0,14.5 0,14.5 -6.5,0 -6.5,0 0,-14.5 0,-14.5 z m 17,0 6.5,0 6.5,0 0,14.5 0,14.5 -6.5,0 -6.5,0 0,-14.5 0,-14.5 z m 91,5 6.5,0 6.5,0 0,14.5 0,14.5 -6.5,0 -6.5,0 0,-14.5 0,-14.5 z m 178,26 6,0 6,0 0,14.5 0,14.5 -6,0 -6,0 0,-14.5 0,-14.5 z m 17,0 6,0 6,0 0,14.5 0,14.5 -6,0 -6,0 0,-14.5 0,-14.5 z m -303,4 6.5,0 6.5,0 0,14.5 0,14.5 -6.5,0 -6.5,0 0,-14.5 0,-14.5 z m 286,31 6,0 6,0 0,14.5 0,14.5 -6,0 -6,0 0,-14.5 0,-14.5 z m -123.5,5.5 6,0 6,0 0,14.5 0,14.5 -6.27734,0.29883 -6.27735,0.29687 0.27735,-14.79687 0.27734,-14.79883 z m 17,0 6,0 6,0 0.27734,14.75 0.27539,14.75 -6.05664,0 c -4.04935,0 -6.22503,-0.43154 -6.55859,-1.30078 -0.27451,-0.71525 -0.37298,-7.35275 -0.21875,-14.75 l 0.28125,-13.44922 z m -17,35 6,0 6,0 0,14.5 0,14.5 -6.27734,0.29883 -6.27735,0.29687 0.27735,-14.79687 0.27734,-14.79883 z"
       id="path4266-5"
       inkscape:export-xdpi="299.98447"
       inkscape:export-ydpi="299.98447" />
  </g>
  <g
     inkscape:groupmode="layer"
     id="layer4"
     inkscape:label="key">
    <path
       style="display:inline;opacity:0.475;fill:#a94131;fill-opacity:1;stroke:#000000;stroke-width:1.00997531;stroke-miterlimit:4;stroke-dasharray:none;stroke-opacity:1"
       d="m 271.09158,713.39519 c -6.06521,-1.01912 -13.03818,-4.90955 -17.62783,-9.83528 -10.13498,-10.87705 -12.21571,-27.57358 -5.15528,-41.36778 1.29168,-2.52373 14.0263,-16.76624 55.0836,-61.60597 l 53.40343,-58.3234 22.22436,24.17892 22.22429,24.17881 -53.50889,58.26538 c -56.66085,61.69759 -55.51167,60.54592 -62.96451,63.1021 -3.44925,1.18308 -10.62178,1.92084 -13.67917,1.40722 z m 237.26645,-0.76888 c -20.38697,-3.65609 -37.45989,-17.33981 -46.75902,-37.47689 -4.21523,-9.12785 -6.7739,-21.35285 -6.7739,-32.36491 0,-5.01065 1.68991,-15.74097 3.07246,-19.50904 l 0.85352,-2.32619 -64.77677,-70.66029 c -53.5796,-58.44633 -64.96264,-70.59459 -65.85275,-70.27984 -15.94283,5.63861 -31.85722,4.76122 -46.80759,-2.58048 -31.06231,-15.25396 -45.09953,-54.50373 -31.77524,-88.84762 0.46948,-1.21008 1.02291,-2.20005 1.2298,-2.20005 0.20674,0 10.43269,10.92198 22.72405,24.27125 20.8866,22.68421 22.55895,24.35973 25.57601,25.62318 4.27967,1.79225 10.31315,2.16672 14.34,0.89005 10.04488,-3.18439 16.4614,-14.54617 14.47834,-25.6367 -1.32893,-7.43253 -2.24236,-8.65125 -25.74619,-34.35122 l -21.75519,-23.78787 3.84804,-1.68588 c 4.45614,-1.95241 10.49789,-3.68255 16.01404,-4.58588 13.36855,-2.18909 29.19633,2.00052 42.1315,11.15211 4.4588,3.15457 13.67083,13.1841 16.65846,18.13672 7.40577,12.27654 10.9362,25.08327 10.99835,39.89652 0.03,7.30034 -0.67014,12.28477 -2.78714,19.83147 l -0.87264,3.11004 64.64189,70.49246 64.64174,70.4924 2.852,-0.95154 c 12.89203,-4.30125 26.89218,-4.02164 39.69857,0.79293 9.50692,3.57415 16.38147,8.33019 24.00783,16.60973 9.88129,10.72773 15.13044,21.97566 17.70735,37.94394 1.74279,10.79959 0.1646,24.64898 -4.05261,35.54803 l -1.46787,3.7939 -21.45614,-23.29164 c -11.80081,-12.81043 -22.42453,-24.01402 -23.60819,-24.89697 -1.18359,-0.88284 -3.81873,-2.2054 -5.85583,-2.93906 -10.53069,-3.79227 -22.59695,3.1809 -25.8674,14.94886 -1.6792,6.04233 -0.62595,14.29347 2.45597,19.23756 0.64614,1.03624 10.8782,12.50505 22.73843,25.48607 13.20056,14.44816 21.36101,23.80073 21.0407,24.11452 -0.94105,0.92179 -7.82079,3.64648 -12.28968,4.8674 -4.86031,1.32767 -18.42548,1.99001 -23.2049,1.13293 z m -62.28079,-219.3221 c -5.84137,-6.37626 -10.6208,-11.84889 -10.6208,-12.16166 0,-0.31288 12.10151,-13.77544 26.89225,-29.91703 14.79076,-16.14163 27.22071,-29.87644 27.62199,-30.52183 0.4013,-0.64533 2.91716,-5.79375 5.59065,-11.44097 18.30556,-38.66518 17.33579,-36.77858 19.57321,-38.07464 2.97769,-1.72489 15.61039,-8.85957 26.58067,-15.0123 5.62225,-3.15333 11.71659,-6.62527 13.54271,-7.71536 l 3.32052,-1.98206 11.0466,12.01006 11.0466,12.01004 -7.32593,15.42186 c -4.02923,8.48197 -9.32803,19.64618 -11.7752,24.80921 -4.09974,8.64988 -4.63177,9.49371 -6.77219,10.74075 -3.407,1.98503 -19.67501,11.18483 -31.1067,17.59151 -5.47438,3.06794 -10.55865,6.0464 -11.29842,6.61882 -0.73973,0.57229 -13.32945,14.12983 -27.97702,30.1275 -14.64755,15.99771 -26.87638,29.08732 -27.1751,29.08789 -0.29876,6e-4 -5.32235,-5.21573 -11.16384,-11.59179 z"
       id="path4532"
       inkscape:connector-curvature="0"
       inkscape:export-xdpi="299.98447"
       inkscape:export-ydpi="299.98447" />
  </g>
  <g
     inkscape:groupmode="layer"
     id="layer3"
     inkscape:label="text">
    <text
       xml:space="preserve"
       style="font-style:normal;font-weight:normal;font-size:37.5px;line-height:1.25;font-family:sans-serif;letter-spacing:0px;word-spacing:0px;fill:#000000;fill-opacity:1;stroke:none;stroke-width:0.9375"
       x="392.83698"
       y="566.89716"
       id="text3836"><tspan
         sodipodi:role="line"
         id="tspan3834"
         x="392.83698"
         y="600.07587"
         style="stroke-width:0.9375" /></text>
  </g>
  <g
     inkscape:groupmode="layer"
     id="layer6"
     inkscape:label="city"
     style="display:inline" />
  <g
     inkscape:groupmode="layer"
     id="layer5"
     inkscape:label="gps">
    <path
       style="fill:#ffffff;fill-opacity:1;stroke:#000000;stroke-width:2;stroke-miterlimit:4;stroke-dasharray:none;stroke-opacity:1"
       d="m 417.25894,792.6741 c 15.39247,-0.44958 35.45467,-3.08587 47.88566,-6.2925 24.67852,-6.36583 37.23173,-15.75565 36.30048,-27.15275 -0.87686,-10.73106 -13.30009,-18.26951 -37.32061,-22.64621 -4.05757,-0.73931 -9.08955,-1.52734 -11.18218,-1.75109 -2.09266,-0.22377 -4.26806,-0.51925 -4.83429,-0.65666 -0.73827,-0.17913 -2.21691,1.25858 -5.22506,5.08336 l -4.19554,5.33298 6.78631,1.30801 c 12.99261,2.50428 26.48376,7.17721 32.04264,11.09865 l 2.19111,1.54561 -2.10414,1.03648 c -7.36101,3.62588 -25.80098,6.19279 -48.50271,6.75185 -21.38572,0.52662 -59.12127,-1.67206 -73.36484,-4.27466 -6.54942,-1.19672 -13.92862,-3.38067 -16.04303,-4.74813 -1.24689,-0.80638 -1.2273,-0.85592 0.93263,-2.37055 4.87768,-3.42048 20.66661,-8.60033 31.96647,-10.48726 2.99287,-0.49974 5.57872,-1.02127 5.74632,-1.159 0.1675,-0.13827 -1.36191,-2.37247 -3.39866,-4.96628 -2.03697,-2.59381 -3.74959,-4.78658 -3.80588,-4.8729 -0.0563,-0.0861 -3.77001,0.16181 -8.2527,0.55202 -20.10488,1.74888 -33.37439,5.68517 -40.60285,12.04454 -4.34317,3.82094 -5.7467,6.70525 -5.70836,11.73063 0.0717,9.38123 10.32215,17.85588 29.94233,24.75552 21.2901,7.48624 45.03791,10.88957 70.7466,10.13872 z m -5.35533,-37.7821 c 1.37853,-1.78794 20.00284,-25.51184 41.3873,-52.71986 21.3844,-27.20799 40.37977,-51.86085 42.21194,-54.78402 3.92082,-6.25567 7.78771,-15.68789 9.29912,-22.6825 1.6379,-7.58047 1.39135,-21.59925 -0.51655,-29.36761 -8.20224,-33.39628 -38.62657,-58.99007 -78.71698,-66.21891 -10.13879,-1.82814 -26.2954,-2.06958 -36.409,-0.54415 -26.99993,4.0724 -49.90971,16.75679 -64.65629,35.79805 -3.00247,3.87679 -7.27245,11.44413 -9.51174,16.8565 -3.69907,8.94096 -4.95318,15.69631 -4.89006,26.34118 0.0628,10.62461 1.39666,17.3096 5.28555,26.4932 3.32031,7.84098 6.75799,13.14953 16.70402,25.79482 4.87163,6.19368 24.11581,30.83345 42.76489,54.755 18.64907,23.92157 34.05001,43.50168 34.22429,43.51135 0.17426,0.008 1.44493,-1.44515 2.82349,-3.23308 z M 396.23312,650.15224 c -5.86422,-1.24702 -16.18716,-5.71846 -20.5244,-8.89026 -8.51542,-6.22732 -14.40058,-14.01424 -17.15125,-22.69358 -1.86402,-5.88161 -1.92154,-14.77591 -0.13313,-20.54896 4.72817,-15.26126 18.5127,-26.58355 36.87493,-30.28825 6.9951,-1.41121 17.69621,-1.2513 24.71394,0.36943 18.4371,4.25799 32.32943,15.93669 37.3488,31.39762 1.90279,5.86114 1.97263,14.72304 0.16181,20.5494 -5.21406,16.77747 -21.46249,28.86077 -41.9818,31.22025 -4.78794,0.55051 -13.96776,0.0189 -19.30904,-1.11565 z"
       id="path4538"
       inkscape:connector-curvature="0"
       inkscape:export-xdpi="299.98447"
       inkscape:export-ydpi="299.98447" />
  </g>
</svg>
