<?xml version="1.0" encoding="UTF-8" standalone="no"?>
<!-- Created with Inkscape (http://www.inkscape.org/) -->

<svg
   xmlns:osb="http://www.openswatchbook.org/uri/2009/osb"
   xmlns:dc="http://purl.org/dc/elements/1.1/"
   xmlns:cc="http://creativecommons.org/ns#"
   xmlns:rdf="http://www.w3.org/1999/02/22-rdf-syntax-ns#"
   xmlns:svg="http://www.w3.org/2000/svg"
   xmlns="http://www.w3.org/2000/svg"
   xmlns:xlink="http://www.w3.org/1999/xlink"
   xmlns:sodipodi="http://sodipodi.sourceforge.net/DTD/sodipodi-0.dtd"
   xmlns:inkscape="http://www.inkscape.org/namespaces/inkscape"
   width="210mm"
   height="297mm"
   viewBox="0 0 744.09448819 1052.3622047"
   id="svg2"
   version="1.1"
   inkscape:version="0.91 r13725"
   sodipodi:docname="logo.svg"
   inkscape:export-filename="/home/hideki/Projetos/Urban-fix/artes/logo.png"
   inkscape:export-xdpi="77.237114"
   inkscape:export-ydpi="77.237114">
  <defs
     id="defs4">
    <linearGradient
       id="linearGradient4611">
      <stop
         style="stop-color:#e83724;stop-opacity:1;"
         offset="0"
         id="stop4609" />
    </linearGradient>
    <linearGradient
       id="linearGradient4605"
       osb:paint="solid">
      <stop
         style="stop-color:#facf88;stop-opacity:1;"
         offset="0"
         id="stop4603" />
    </linearGradient>
    <linearGradient
       id="linearGradient4599"
       osb:paint="solid">
      <stop
         style="stop-color:#000000;stop-opacity:1;"
         offset="0"
         id="stop4597" />
    </linearGradient>
    <linearGradient
       id="linearGradient4565"
       osb:paint="solid">
      <stop
         style="stop-color:#000000;stop-opacity:1;"
         offset="0"
         id="stop4563" />
    </linearGradient>
    <linearGradient
       inkscape:collect="always"
       xlink:href="#linearGradient4599"
       id="linearGradient4601"
       x1="87.449765"
       y1="614.30201"
       x2="668.68804"
       y2="614.30201"
       gradientUnits="userSpaceOnUse" />
    <linearGradient
       inkscape:collect="always"
       xlink:href="#linearGradient4565"
       id="linearGradient4615"
       gradientUnits="userSpaceOnUse"
       x1="152.33437"
       y1="577.20104"
       x2="626.39725"
       y2="577.20104" />
    <linearGradient
       inkscape:collect="always"
       xlink:href="#linearGradient4565"
       id="linearGradient4379"
       gradientUnits="userSpaceOnUse"
       x1="152.33437"
       y1="577.20104"
       x2="626.39725"
       y2="577.20104" />
    <linearGradient
       inkscape:collect="always"
       xlink:href="#linearGradient4565"
       id="linearGradient4383"
       gradientUnits="userSpaceOnUse"
       x1="152.33437"
       y1="577.20104"
       x2="626.39725"
       y2="577.20104" />
  </defs>
  <sodipodi:namedview
     id="base"
     pagecolor="#ffffff"
     bordercolor="#666666"
     borderopacity="1.0"
     inkscape:pageopacity="0.0"
     inkscape:pageshadow="2"
     inkscape:zoom="0.49497475"
     inkscape:cx="315.82689"
     inkscape:cy="415.95432"
     inkscape:document-units="px"
     inkscape:current-layer="layer4"
     showgrid="false"
     inkscape:window-width="1366"
     inkscape:window-height="710"
     inkscape:window-x="0"
     inkscape:window-y="0"
     inkscape:window-maximized="1" />
  <metadata
     id="metadata7">
    <rdf:RDF>
      <cc:Work
         rdf:about="">
        <dc:format>image/svg+xml</dc:format>
        <dc:type
           rdf:resource="http://purl.org/dc/dcmitype/StillImage" />
        <dc:title />
      </cc:Work>
    </rdf:RDF>
  </metadata>
  <g
     inkscape:label="Layer 1"
     inkscape:groupmode="layer"
     id="layer1" />
  <g
     inkscape:groupmode="layer"
     id="layer2"
     inkscape:label="BackGround">
    <path
       inkscape:connector-curvature="0"
       style="fill:#1e3a78;fill-opacity:1;stroke:url(#linearGradient4601)"
       d="m 269.82223,387.58759 0,109.88887 0,109.88887 -7.24509,0 -7.24509,0 0,-65.80554 0,-65.80555 -28.98036,0 -28.98035,0 0,79.2846 0,79.2871 -7.57441,-0.38433 -7.57441,-0.38184 -0.3602,-23.31944 -0.35762,-23.31944 -46.71745,0 -46.717437,0 -0.34733,46.31944 -0.272718,36.74608 A 333.08591,323.09519 0 0 0 381.03794,841.01644 333.08591,323.09519 0 0 0 668.68804,680.19865 l -1.04457,0 0,-48.55555 0,-48.55554 -41.4946,0 -41.4946,0 0,28.74999 0,28.75 -13.83153,0 -13.83154,0 0,-97.1111 0,-97.11109 -36.22544,0 -36.22545,0 0,31.94444 0,31.94444 -21.07662,0 -21.07662,0 0,36.41666 0,36.41666 -19.10069,0 -19.10069,0 0,-97.74999 0,-97.74998 -67.18173,0 -67.18173,0 z m 46.10511,14.05555 7.90373,0 7.90373,0 0,19.16667 0,19.16666 -7.90373,0 -7.90373,0 0,-19.16666 0,-19.16667 z m 28.98035,0 7.90374,0 7.90373,0 0,19.16667 0,19.16666 -7.90373,0 -7.90374,0 0,-19.16666 0,-19.16667 z m -58.61935,0.63889 7.90373,0 7.90373,0 0,18.52778 0,18.52777 -8.26907,0.38184 -8.26908,0.37933 0.36535,-18.90711 0.36534,-18.90961 z m -0.65865,50.47222 8.56238,0 8.56238,0 0,18.52777 0,18.52777 -8.56238,0 -8.56238,0 0,-18.52777 0,-18.52777 z m 30.29765,0 7.90373,0 7.90373,0 0,18.52777 0,18.52777 -7.90373,0 -7.90373,0 0,-18.52777 0,-18.52777 z m 176.51671,0 7.90373,0 7.90373,0 0,19.16666 0,19.16666 -7.90373,0 -7.90373,0 0,-19.16666 0,-19.16666 z m 22.39391,0 7.90373,0 7.90374,0 0,19.16666 0,19.16666 -7.90374,0 -7.90373,0 0,-19.16666 0,-19.16666 z m -311.53882,30.02777 7.90373,0 7.90374,0 0,18.52777 0,18.52778 -7.58985,0.38184 c -5.4476,0.27537 -7.78419,-0.10146 -8.27422,-1.34018 -0.37556,-0.94924 -0.51705,-9.46006 -0.31389,-18.9121 l 0.37049,-17.18511 z m 30.29764,0 7.90374,0 7.90373,0 0,18.52777 0,18.52778 -7.58985,0.38184 c -5.4476,0.27537 -7.78419,-0.10146 -8.27422,-1.34018 -0.37556,-0.94924 -0.51705,-9.46006 -0.31388,-18.9121 l 0.37048,-17.18511 z m 258.84727,15.97222 7.90373,0 7.90373,0 0,18.52777 0,18.52778 -7.90373,0 -7.90373,0 0,-18.52778 0,-18.52777 z m -206.81436,3.83333 8.56238,0 8.56238,0 0,18.52778 0,18.52777 -8.56238,0 -8.56238,0 0,-18.52777 0,-18.52778 z m -82.9892,30.66666 8.56238,0 8.56238,0 0,18.52778 0,18.52777 -8.56238,0 -8.56238,0 0,-18.52777 0,-18.52778 z m 391.89345,56.8611 7.90373,0 7.90373,0 0.36534,18.84722 0.36277,18.84722 -7.97835,0 c -5.33416,0 -8.20016,-0.55141 -8.63955,-1.66211 -0.36161,-0.91393 -0.49133,-9.39517 -0.28816,-18.84722 l 0.37049,-17.18511 z m 22.39391,0 7.90373,0 7.90373,0 0.36534,18.84722 0.36277,18.84722 -7.97835,0 c -5.33416,0 -8.20016,-0.55141 -8.63955,-1.66211 -0.36161,-0.91393 -0.49133,-9.39517 -0.28816,-18.84722 l 0.37049,-17.18511 z m -517.035883,8.30556 7.903733,0 7.90373,0 0,18.52777 0,18.52778 -7.90373,0 -7.903733,0 0,-18.52778 0,-18.52777 z m 27.663063,0 7.90373,0 7.90374,0 0,18.52777 0,18.52778 -7.90374,0 -7.90373,0 0,-18.52778 0,-18.52777 z m 204.17977,19.16666 7.90374,0 7.90373,0 0,19.16666 0,19.16667 -7.90373,0 -7.90374,0 0,-19.16667 0,-19.16666 z m -29.639,0.63889 7.90374,0 7.90373,0 0,18.52777 0,18.52778 -8.26907,0.38184 -8.26908,0.37933 0.36535,-18.90711 0.36533,-18.90961 z m 291.77949,17.25 8.56238,0 8.56238,0 0,18.52777 0,18.52778 -8.56238,0 -8.56238,0 0,-18.52778 0,-18.52777 z m -434.70533,26.83333 8.56238,0 8.56238,0 0,18.52777 0,18.52777 -8.56238,0 -8.56238,0 0,-18.52777 0,-18.52777 z m 22.39391,0 8.56238,0 8.56238,0 0,18.52777 0,18.52777 -8.56238,0 -8.56238,0 0,-18.52777 0,-18.52777 z m 119.87329,6.38888 8.56238,0 8.56238,0 0,18.52778 0,18.52777 -8.56238,0 -8.56238,0 0,-18.52777 0,-18.52778 z m 234.47742,33.22222 7.90373,0 7.90374,0 0,18.52777 0,18.52778 -7.90374,0 -7.90373,0 0,-18.52778 0,-18.52777 z m 22.39391,0 7.90374,0 7.90373,0 0,18.52777 0,18.52778 -7.90373,0 -7.90374,0 0,-18.52778 0,-18.52777 z m -399.13853,5.11111 8.56238,0 8.56238,0 0,18.52777 0,18.52778 -8.56238,0 -8.56238,0 0,-18.52778 0,-18.52777 z m 376.74462,39.6111 7.90373,0 7.90374,0 0,18.52778 0,18.52777 -7.90374,0 -7.90373,0 0,-18.52777 0,-18.52778 z m -162.68518,7.02778 7.90374,0 7.90373,0 0,18.52778 0,18.52777 -8.26907,0.38184 -8.26908,0.37933 0.36535,-18.90711 0.36533,-18.90961 z m 22.39392,0 7.90373,0 7.90373,0 0.36534,18.84722 0.36277,18.84722 -7.97835,0 c -5.33416,0 -8.20016,-0.55141 -8.63956,-1.66211 -0.3616,-0.91393 -0.49132,-9.39518 -0.28815,-18.84722 l 0.37049,-17.18511 z m -22.39392,44.72222 7.90374,0 7.90373,0 0,18.52777 0,18.52778 -8.26907,0.38183 -8.26908,0.37934 0.36535,-18.90711 0.36533,-18.90961 z"
       id="path4266-5"
       inkscape:export-xdpi="61.789692"
       inkscape:export-ydpi="61.789692" />
  </g>
  <g
     inkscape:groupmode="layer"
     id="layer4"
     inkscape:label="key">
    <path
       style="display:inline;opacity:0.59200003;fill:#55a7d9;fill-opacity:1;stroke:#000000;stroke-width:2.36541724;stroke-miterlimit:4;stroke-dasharray:none;stroke-opacity:1"
       d="m 164.3754,836.75638 c -9.14389,-1.34224 -19.65619,-6.46664 -26.57543,-12.95459 -15.27935,-14.3269 -18.41623,-36.31903 -7.7721,-54.48823 1.94738,-3.3241 21.14596,-22.08386 83.04329,-81.14514 l 80.51023,-76.82146 33.50508,31.84751 33.5051,31.84758 -80.66925,76.74501 c -85.42116,81.26594 -83.6886,79.74885 -94.92445,83.11581 -5.20001,1.55827 -16.01321,2.53013 -20.62247,1.85351 z m 357.69934,-1.01274 c -30.73502,-4.81561 -56.4739,-22.83931 -70.49324,-49.36312 -6.35483,-12.02292 -10.21213,-28.12527 -10.21213,-42.62998 0,-6.59975 2.54768,-20.73345 4.63202,-25.69657 l 1.28667,-3.06402 -97.65644,-93.07124 c -80.77585,-76.98331 -97.93677,-92.98457 -99.27852,-92.56999 -24.03534,7.42695 -48.02759,6.27132 -70.56652,-3.39894 -46.82912,-20.09193 -67.99142,-71.79031 -47.90393,-117.02681 0.70777,-1.59391 1.54211,-2.898 1.85404,-2.898 0.31196,0 15.72826,14.38621 34.25847,31.96931 31.48831,29.87891 34.00956,32.08579 38.558,33.74992 6.45197,2.36066 15.54795,2.85397 21.61889,1.17241 15.14334,-4.19434 24.81683,-19.1597 21.82722,-33.7678 -2.00354,-9.78987 -3.38055,-11.39507 -38.81464,-45.24618 l -32.79769,-31.3325 5.80112,-2.22064 c 6.71797,-2.57161 15.82652,-4.85046 24.14265,-6.04027 20.15414,-2.88342 44.01581,2.63488 63.51679,14.68915 6.72199,4.15508 20.60995,17.3656 25.11404,23.88897 11.16477,16.17034 16.48716,33.03882 16.5809,52.55035 0.0458,9.61574 -1.00992,16.18107 -4.20193,26.12127 l -1.31535,4.09643 97.45302,92.85008 97.45299,92.85003 4.29957,-1.25333 c 19.43579,-5.6654 40.54225,-5.29709 59.84889,1.04443 14.33261,4.70777 24.69651,10.9723 36.19383,21.87779 14.89696,14.13021 22.81051,28.94558 26.69552,49.97836 2.62741,14.22492 0.24728,32.4667 -6.1098,46.82263 l -2.21282,4.99717 -32.34695,-30.67891 c -17.79085,-16.87349 -33.80696,-31.63046 -35.59142,-32.79336 -1.7844,-1.16292 -5.75713,-2.90493 -8.82815,-3.87121 -15.87589,-4.99507 -34.06696,4.18973 -38.99734,19.69005 -2.53151,7.95873 -0.9435,18.82688 3.70255,25.33905 0.97378,1.3649 16.39978,16.47113 34.28014,33.56931 19.90109,19.03061 32.20358,31.34947 31.72062,31.7628 -1.41868,1.21407 -11.79044,4.803 -18.52778,6.41109 -7.32725,1.74884 -27.77785,2.62126 -34.98329,1.49227 z M 428.18115,546.86042 c -8.80645,-8.3984 -16.01173,-15.60687 -16.01173,-16.01882 0,-0.41195 18.24402,-18.14452 40.54242,-39.40561 22.29836,-21.26122 41.03742,-39.35226 41.64239,-40.20231 0.60506,-0.85003 4.39787,-7.63138 8.4284,-15.0696 27.59723,-50.92836 26.13511,-48.44344 29.50822,-50.15056 4.48923,-2.27193 23.53397,-11.66955 40.07271,-19.77374 8.47608,-4.15345 17.66367,-8.72651 20.41692,-10.16226 l 5.00581,-2.61071 16.65372,15.81916 16.65367,15.81921 -11.04452,20.31309 c -6.07432,11.1722 -14.06276,25.87725 -17.75206,32.67785 -6.18071,11.39336 -6.98283,12.50478 -10.20959,14.14729 -5.13642,2.6146 -29.66182,14.73229 -46.89611,23.17087 -8.25309,4.04098 -15.91804,7.96413 -17.03333,8.7181 -1.11531,0.75399 -20.09523,18.61127 -42.17771,39.6829 -22.08246,21.07162 -40.51839,38.3127 -40.96867,38.31352 -0.45029,7.5e-4 -8.02401,-6.86996 -16.83054,-15.26838 z"
       id="path4532"
       inkscape:connector-curvature="0"
       inkscape:export-xdpi="61.789692"
       inkscape:export-ydpi="61.789692" />
  </g>
  <g
     inkscape:groupmode="layer"
     id="layer3"
     inkscape:label="text" />
  <g
     inkscape:groupmode="layer"
     id="layer6"
     inkscape:label="city"
     style="display:inline" />
  <g
     inkscape:groupmode="layer"
     id="layer5"
     inkscape:label="gps">
    <g
       id="g4601"
       transform="translate(-13.030458,28.009431)"
       style="stroke:url(#linearGradient4615);stroke-width:1.00031245;stroke-miterlimit:4;stroke-dasharray:none;stroke-opacity:1"
       inkscape:export-xdpi="61.789692"
       inkscape:export-ydpi="61.789692">
      <text
         id="text4140"
         y="620.83203"
         x="148.54695"
         style="font-style:normal;font-weight:normal;line-height:0%;font-family:sans-serif;letter-spacing:0px;word-spacing:0px;fill:#ffffff;fill-opacity:1;stroke:url(#linearGradient4383);stroke-width:1.00031245;stroke-linecap:butt;stroke-linejoin:miter;stroke-miterlimit:4;stroke-dasharray:none;stroke-opacity:1"
         xml:space="preserve"
         sodipodi:linespacing="0%"><tspan
           transform="matrix(1.3297935,0,0,2.0619653,-97.084813,-639.48328)"
           style="font-style:normal;font-variant:normal;font-weight:normal;font-stretch:condensed;font-size:112.57635498px;line-height:1.25;font-family:Impact;-inkscape-font-specification:'Impact Condensed';fill:#ffffff;stroke:url(#linearGradient4383);stroke-width:0.60409176;stroke-miterlimit:4;stroke-dasharray:none;stroke-opacity:1"
           y="620.83203"
           x="148.54695"
           id="tspan4142"
           sodipodi:role="line">URB    N FIX</tspan></text>
      <path
         inkscape:connector-curvature="0"
         id="path4538"
         d="m 376.29206,626.17064 c 5.68857,-0.16615 13.10293,-1.14044 17.69703,-2.32551 9.1204,-2.35261 13.75967,-5.82279 13.41551,-10.0348 -0.32406,-3.96586 -4.91529,-6.75183 -13.79252,-8.36932 -1.49955,-0.27323 -3.35921,-0.56446 -4.13258,-0.64715 -0.77338,-0.0827 -1.57734,-0.1919 -1.7866,-0.24268 -0.27284,-0.0662 -0.8193,0.46513 -1.93102,1.87865 l -1.55054,1.9709 2.50801,0.4834 c 4.80166,0.9255 9.78756,2.65247 11.84195,4.10171 l 0.80976,0.57121 -0.77762,0.38305 c -2.7204,1.34001 -9.53523,2.28866 -17.92507,2.49527 -7.90349,0.19462 -21.84936,-0.61794 -27.11333,-1.57978 -2.42046,-0.44227 -5.14758,-1.24939 -5.929,-1.75476 -0.46081,-0.29801 -0.45357,-0.31632 0.34467,-0.87608 1.80264,-1.2641 7.63773,-3.17841 11.8138,-3.87576 1.10607,-0.18469 2.06172,-0.37743 2.12366,-0.42833 0.0619,-0.0511 -0.50332,-0.87679 -1.25604,-1.83538 -0.7528,-0.95859 -1.38573,-1.76897 -1.40653,-1.80087 -0.0208,-0.0318 -1.39328,0.0598 -3.04994,0.20401 -7.43013,0.64633 -12.33412,2.10106 -15.00553,4.45128 -1.6051,1.4121 -2.1238,2.47805 -2.10963,4.33527 0.0265,3.46701 3.81474,6.59897 11.06574,9.14886 7.86815,2.76668 16.64459,4.02444 26.14571,3.74695 z m -1.97916,-13.96307 c 0.50946,-0.66077 7.39242,-9.42837 15.29544,-19.4836 7.903,-10.05521 14.92309,-19.16613 15.6002,-20.24644 1.44901,-2.3119 2.87809,-5.79775 3.43666,-8.38274 0.60532,-2.8015 0.5142,-7.9824 -0.1909,-10.85334 -3.03129,-12.34221 -14.27516,-21.80087 -29.09131,-24.47242 -3.74698,-0.67562 -9.71795,-0.76485 -13.45562,-0.2011 -9.97832,1.50503 -18.44505,6.19278 -23.89492,13.22983 -1.10962,1.43274 -2.68767,4.22939 -3.51524,6.22963 -1.36706,3.3043 -1.83054,5.80086 -1.80721,9.73487 0.0232,3.92652 0.51616,6.39708 1.95337,9.79105 1.22708,2.89778 2.49754,4.85965 6.17328,9.53295 1.8004,2.28899 8.91244,11.39507 15.80455,20.23572 6.89211,8.84066 12.58381,16.07685 12.64822,16.08042 0.0644,0.003 0.534,-0.53408 1.04347,-1.19484 z m -5.79132,-38.70851 c -2.16723,-0.46086 -5.98226,-2.11336 -7.58517,-3.28556 -3.14703,-2.30142 -5.322,-5.17922 -6.33856,-8.38683 -0.68888,-2.17366 -0.71014,-5.46071 -0.0492,-7.59425 1.74738,-5.64008 6.84171,-9.82444 13.62781,-11.19358 2.58517,-0.52154 6.53996,-0.46244 9.13349,0.13653 6.81377,1.57362 11.94794,5.8897 13.80294,11.60357 0.70321,2.16609 0.72902,5.44117 0.0598,7.59441 -1.92695,6.20042 -7.93186,10.66603 -15.51515,11.53802 -1.76947,0.20345 -5.16204,0.007 -7.13601,-0.41231 z"
         style="fill:#e83724;fill-opacity:1;stroke:url(#linearGradient4379);stroke-width:1.00031245;stroke-miterlimit:4;stroke-dasharray:none;stroke-opacity:1" />
    </g>
    <text
       xml:space="preserve"
       style="font-style:normal;font-weight:normal;font-size:37.5px;line-height:722.84997559;font-family:sans-serif;letter-spacing:61.46249771px;word-spacing:0px;fill:#000000;fill-opacity:1;stroke:none;stroke-width:0.9375"
       x="334.29736"
       y="571.27704"
       id="text21"
       inkscape:export-xdpi="300.0499"
       inkscape:export-ydpi="300.0499"><tspan
         sodipodi:role="line"
         id="tspan19"
         x="334.29736"
         y="571.27704"
         style="stroke-width:0.9375" /></text>
  </g>
</svg>
