<?xml version="1.0" encoding="UTF-8" standalone="no"?>
<!-- Created with Inkscape (http://www.inkscape.org/) -->

<svg
   xmlns:osb="http://www.openswatchbook.org/uri/2009/osb"
   xmlns:dc="http://purl.org/dc/elements/1.1/"
   xmlns:cc="http://creativecommons.org/ns#"
   xmlns:rdf="http://www.w3.org/1999/02/22-rdf-syntax-ns#"
   xmlns:svg="http://www.w3.org/2000/svg"
   xmlns="http://www.w3.org/2000/svg"
   xmlns:xlink="http://www.w3.org/1999/xlink"
   xmlns:sodipodi="http://sodipodi.sourceforge.net/DTD/sodipodi-0.dtd"
   xmlns:inkscape="http://www.inkscape.org/namespaces/inkscape"
   width="210mm"
   height="297mm"
   viewBox="0 0 744.09448819 1052.3622047"
   id="svg2"
   version="1.1"
   inkscape:version="0.92.2 (5c3e80d, 2017-08-06)"
   sodipodi:docname="logo.svg"
   inkscape:export-filename="/home/hidekiw/Dropbox/Projetos Software/Urban Fix/Aplicativo/Draw/splash.png"
   inkscape:export-xdpi="90"
   inkscape:export-ydpi="90">
  <defs
     id="defs4">
    <linearGradient
       id="linearGradient4611"
       osb:paint="solid">
      <stop
         style="stop-color:#e83724;stop-opacity:1;"
         offset="0"
         id="stop4609" />
    </linearGradient>
    <linearGradient
       id="linearGradient4605"
       osb:paint="solid">
      <stop
         style="stop-color:#facf88;stop-opacity:1;"
         offset="0"
         id="stop4603" />
    </linearGradient>
    <linearGradient
       id="linearGradient4599"
       osb:paint="solid">
      <stop
         style="stop-color:#000000;stop-opacity:1;"
         offset="0"
         id="stop4597" />
    </linearGradient>
    <linearGradient
       id="linearGradient4565"
       osb:paint="solid">
      <stop
         style="stop-color:#000000;stop-opacity:1;"
         offset="0"
         id="stop4563" />
    </linearGradient>
    <linearGradient
       inkscape:collect="always"
       xlink:href="#linearGradient4599"
       id="linearGradient4601"
       x1="87.449765"
       y1="614.30201"
       x2="668.68804"
       y2="614.30201"
       gradientUnits="userSpaceOnUse" />
    <linearGradient
       inkscape:collect="always"
       xlink:href="#linearGradient4605"
       id="linearGradient4607"
       x1="272.09869"
       y1="751.43357"
       x2="494.91878"
       y2="751.43357"
       gradientUnits="userSpaceOnUse" />
    <linearGradient
       inkscape:collect="always"
       xlink:href="#linearGradient4611"
       id="linearGradient4613"
       x1="272.09869"
       y1="751.43357"
       x2="494.91878"
       y2="751.43357"
       gradientUnits="userSpaceOnUse" />
    <linearGradient
       inkscape:collect="always"
       xlink:href="#linearGradient4565"
       id="linearGradient4615"
       gradientUnits="userSpaceOnUse"
       x1="152.33437"
       y1="577.20104"
       x2="626.39725"
       y2="577.20104" />
  </defs>
  <sodipodi:namedview
     id="base"
     pagecolor="#ffffff"
     bordercolor="#666666"
     borderopacity="1.0"
     inkscape:pageopacity="0.0"
     inkscape:pageshadow="2"
     inkscape:zoom="0.7"
     inkscape:cx="250.71483"
     inkscape:cy="520.81282"
     inkscape:document-units="px"
     inkscape:current-layer="layer4"
     showgrid="false"
     inkscape:window-width="1366"
     inkscape:window-height="713"
     inkscape:window-x="0"
     inkscape:window-y="27"
     inkscape:window-maximized="1" />
  <metadata
     id="metadata7">
    <rdf:RDF>
      <cc:Work
         rdf:about="">
        <dc:format>image/svg+xml</dc:format>
        <dc:type
           rdf:resource="http://purl.org/dc/dcmitype/StillImage" />
        <dc:title></dc:title>
      </cc:Work>
    </rdf:RDF>
  </metadata>
  <g
     inkscape:label="Layer 1"
     inkscape:groupmode="layer"
     id="layer1" />
  <g
     inkscape:groupmode="layer"
     id="layer2"
     inkscape:label="BackGround">
    <path
       inkscape:connector-curvature="0"
       style="fill:#1e3a78;fill-opacity:1;stroke:url(#linearGradient4601)"
       d="m 269.82223,387.58759 0,109.88887 0,109.88887 -7.24509,0 -7.24509,0 0,-65.80554 0,-65.80555 -28.98036,0 -28.98035,0 0,79.2846 0,79.2871 -7.57441,-0.38433 -7.57441,-0.38184 -0.3602,-23.31944 -0.35762,-23.31944 -46.71745,0 -46.717437,0 -0.34733,46.31944 -0.272718,36.74608 A 333.08591,323.09519 0 0 0 381.03794,841.01644 333.08591,323.09519 0 0 0 668.68804,680.19865 l -1.04457,0 0,-48.55555 0,-48.55554 -41.4946,0 -41.4946,0 0,28.74999 0,28.75 -13.83153,0 -13.83154,0 0,-97.1111 0,-97.11109 -36.22544,0 -36.22545,0 0,31.94444 0,31.94444 -21.07662,0 -21.07662,0 0,36.41666 0,36.41666 -19.10069,0 -19.10069,0 0,-97.74999 0,-97.74998 -67.18173,0 -67.18173,0 z m 46.10511,14.05555 7.90373,0 7.90373,0 0,19.16667 0,19.16666 -7.90373,0 -7.90373,0 0,-19.16666 0,-19.16667 z m 28.98035,0 7.90374,0 7.90373,0 0,19.16667 0,19.16666 -7.90373,0 -7.90374,0 0,-19.16666 0,-19.16667 z m -58.61935,0.63889 7.90373,0 7.90373,0 0,18.52778 0,18.52777 -8.26907,0.38184 -8.26908,0.37933 0.36535,-18.90711 0.36534,-18.90961 z m -0.65865,50.47222 8.56238,0 8.56238,0 0,18.52777 0,18.52777 -8.56238,0 -8.56238,0 0,-18.52777 0,-18.52777 z m 30.29765,0 7.90373,0 7.90373,0 0,18.52777 0,18.52777 -7.90373,0 -7.90373,0 0,-18.52777 0,-18.52777 z m 176.51671,0 7.90373,0 7.90373,0 0,19.16666 0,19.16666 -7.90373,0 -7.90373,0 0,-19.16666 0,-19.16666 z m 22.39391,0 7.90373,0 7.90374,0 0,19.16666 0,19.16666 -7.90374,0 -7.90373,0 0,-19.16666 0,-19.16666 z m -311.53882,30.02777 7.90373,0 7.90374,0 0,18.52777 0,18.52778 -7.58985,0.38184 c -5.4476,0.27537 -7.78419,-0.10146 -8.27422,-1.34018 -0.37556,-0.94924 -0.51705,-9.46006 -0.31389,-18.9121 l 0.37049,-17.18511 z m 30.29764,0 7.90374,0 7.90373,0 0,18.52777 0,18.52778 -7.58985,0.38184 c -5.4476,0.27537 -7.78419,-0.10146 -8.27422,-1.34018 -0.37556,-0.94924 -0.51705,-9.46006 -0.31388,-18.9121 l 0.37048,-17.18511 z m 258.84727,15.97222 7.90373,0 7.90373,0 0,18.52777 0,18.52778 -7.90373,0 -7.90373,0 0,-18.52778 0,-18.52777 z m -206.81436,3.83333 8.56238,0 8.56238,0 0,18.52778 0,18.52777 -8.56238,0 -8.56238,0 0,-18.52777 0,-18.52778 z m -82.9892,30.66666 8.56238,0 8.56238,0 0,18.52778 0,18.52777 -8.56238,0 -8.56238,0 0,-18.52777 0,-18.52778 z m 391.89345,56.8611 7.90373,0 7.90373,0 0.36534,18.84722 0.36277,18.84722 -7.97835,0 c -5.33416,0 -8.20016,-0.55141 -8.63955,-1.66211 -0.36161,-0.91393 -0.49133,-9.39517 -0.28816,-18.84722 l 0.37049,-17.18511 z m 22.39391,0 7.90373,0 7.90373,0 0.36534,18.84722 0.36277,18.84722 -7.97835,0 c -5.33416,0 -8.20016,-0.55141 -8.63955,-1.66211 -0.36161,-0.91393 -0.49133,-9.39517 -0.28816,-18.84722 l 0.37049,-17.18511 z m -517.035883,8.30556 7.903733,0 7.90373,0 0,18.52777 0,18.52778 -7.90373,0 -7.903733,0 0,-18.52778 0,-18.52777 z m 27.663063,0 7.90373,0 7.90374,0 0,18.52777 0,18.52778 -7.90374,0 -7.90373,0 0,-18.52778 0,-18.52777 z m 204.17977,19.16666 7.90374,0 7.90373,0 0,19.16666 0,19.16667 -7.90373,0 -7.90374,0 0,-19.16667 0,-19.16666 z m -29.639,0.63889 7.90374,0 7.90373,0 0,18.52777 0,18.52778 -8.26907,0.38184 -8.26908,0.37933 0.36535,-18.90711 0.36533,-18.90961 z m 291.77949,17.25 8.56238,0 8.56238,0 0,18.52777 0,18.52778 -8.56238,0 -8.56238,0 0,-18.52778 0,-18.52777 z m -434.70533,26.83333 8.56238,0 8.56238,0 0,18.52777 0,18.52777 -8.56238,0 -8.56238,0 0,-18.52777 0,-18.52777 z m 22.39391,0 8.56238,0 8.56238,0 0,18.52777 0,18.52777 -8.56238,0 -8.56238,0 0,-18.52777 0,-18.52777 z m 119.87329,6.38888 8.56238,0 8.56238,0 0,18.52778 0,18.52777 -8.56238,0 -8.56238,0 0,-18.52777 0,-18.52778 z m 234.47742,33.22222 7.90373,0 7.90374,0 0,18.52777 0,18.52778 -7.90374,0 -7.90373,0 0,-18.52778 0,-18.52777 z m 22.39391,0 7.90374,0 7.90373,0 0,18.52777 0,18.52778 -7.90373,0 -7.90374,0 0,-18.52778 0,-18.52777 z m -399.13853,5.11111 8.56238,0 8.56238,0 0,18.52777 0,18.52778 -8.56238,0 -8.56238,0 0,-18.52778 0,-18.52777 z m 376.74462,39.6111 7.90373,0 7.90374,0 0,18.52778 0,18.52777 -7.90374,0 -7.90373,0 0,-18.52777 0,-18.52778 z m -162.68518,7.02778 7.90374,0 7.90373,0 0,18.52778 0,18.52777 -8.26907,0.38184 -8.26908,0.37933 0.36535,-18.90711 0.36533,-18.90961 z m 22.39392,0 7.90373,0 7.90373,0 0.36534,18.84722 0.36277,18.84722 -7.97835,0 c -5.33416,0 -8.20016,-0.55141 -8.63956,-1.66211 -0.3616,-0.91393 -0.49132,-9.39518 -0.28815,-18.84722 l 0.37049,-17.18511 z m -22.39392,44.72222 7.90374,0 7.90373,0 0,18.52777 0,18.52778 -8.26907,0.38183 -8.26908,0.37934 0.36535,-18.90711 0.36533,-18.90961 z"
       id="path4266-5"
       inkscape:export-xdpi="300.0499"
       inkscape:export-ydpi="300.0499" />
  </g>
  <g
     inkscape:groupmode="layer"
     id="layer4"
     inkscape:label="key">
    <path
       style="display:inline;fill:url(#linearGradient4613);fill-opacity:1;stroke:url(#linearGradient4607);stroke-width:6.00000002;stroke-miterlimit:4;stroke-dasharray:none;stroke-opacity:1"
       d="m 292.3579,853.06756 c -3.89499,-0.56318 -8.37286,-2.71325 -11.32021,-5.43543 -6.50848,-6.01122 -7.84469,-15.23858 -3.31065,-22.86194 0.82952,-1.39471 9.00744,-9.26585 35.37354,-34.04653 l 34.29457,-32.23242 14.272,13.36245 14.27201,13.36247 -34.3623,32.20034 c -36.38644,34.0972 -35.64842,33.46068 -40.43451,34.87338 -2.21502,0.6538 -6.82107,1.06157 -8.78445,0.77768 z m 152.36749,-0.42492 c -13.09206,-2.02051 -24.05592,-9.58282 -30.02768,-20.71157 -2.70693,-5.04451 -4.35001,-11.80067 -4.35001,-17.88649 0,-2.76911 1.08522,-8.69926 1.97307,-10.78168 l 0.54809,-1.28557 -41.59825,-39.05044 c -34.40771,-32.30032 -41.71767,-39.01406 -42.28921,-38.84011 -10.23821,3.11617 -20.45809,2.63129 -30.05889,-1.42612 -19.94758,-8.43008 -28.96198,-30.12147 -20.4054,-49.1016 0.30148,-0.66876 0.65688,-1.21593 0.78976,-1.21593 0.13286,0 6.69969,6.03609 14.59291,13.41354 13.41293,12.53647 14.48689,13.46242 16.42437,14.16065 2.74832,0.99048 6.62289,1.19746 9.20888,0.49191 6.45055,-1.75984 10.57113,-8.03893 9.29765,-14.16814 -0.85344,-4.10759 -1.44,-4.7811 -16.53368,-18.9842 l -13.97069,-13.14635 2.47108,-0.93173 c 2.86163,-1.07898 6.74156,-2.03514 10.28394,-2.53436 8.58496,-1.20981 18.7492,1.10554 27.05594,6.16321 2.86334,1.74337 8.77912,7.28619 10.69771,10.02325 4.7558,6.78466 7.02296,13.86227 7.06288,22.04884 0.0195,4.03452 -0.43019,6.78918 -1.78986,10.95984 l -0.56031,1.71877 41.51161,38.95763 41.51159,38.95762 1.83146,-0.52586 c 8.27897,-2.37706 17.26959,-2.22253 25.49356,0.43822 6.10519,1.97526 10.51984,4.6037 15.4173,9.17938 6.3456,5.92869 9.71649,12.14486 11.37136,20.9697 1.1192,5.96843 0.10531,13.62225 -2.60256,19.64565 l -0.94258,2.09669 -13.77867,-12.87213 c -7.57829,-7.07971 -14.40059,-13.27137 -15.16071,-13.7593 -0.7601,-0.48793 -2.45234,-1.21884 -3.7605,-1.62427 -6.76256,-2.09581 -14.51132,1.75792 -16.6115,8.26148 -1.07835,3.33928 -0.4019,7.8993 1.57716,10.63165 0.4148,0.57268 6.98573,6.91088 14.60215,14.08486 8.47717,7.98479 13.7176,13.15348 13.51188,13.3269 -0.60431,0.5094 -5.02232,2.01521 -7.89218,2.68994 -3.12116,0.73377 -11.83241,1.09982 -14.90167,0.62612 z M 404.72998,731.43426 c -3.75125,-3.52377 -6.82044,-6.54826 -6.82044,-6.72111 0,-0.17285 7.77132,-7.61299 17.26965,-16.53364 9.49833,-8.92068 17.48052,-16.51123 17.73822,-16.86791 0.25773,-0.35665 1.87334,-3.20193 3.59021,-6.32283 11.75545,-21.3683 11.13265,-20.32569 12.56947,-21.04195 1.91226,-0.95325 10.02467,-4.89627 17.06957,-8.29659 3.61053,-1.74268 7.52412,-3.66142 8.6969,-4.26385 l 2.13232,-1.09538 7.09389,6.63734 7.0939,6.63736 -4.70458,8.52288 c -2.58746,4.68757 -5.99026,10.85745 -7.56177,13.71083 -2.63276,4.78037 -2.97444,5.2467 -4.34893,5.93585 -2.18793,1.09703 -12.63491,6.18131 -19.97612,9.72193 -3.51552,1.6955 -6.78053,3.34156 -7.2556,3.65791 -0.47508,0.31636 -8.55987,7.80884 -17.96623,16.64998 -9.40637,8.84114 -17.25943,16.07508 -17.45123,16.07542 -0.19183,3.2e-4 -3.41796,-2.88247 -7.16923,-6.40624 z"
       id="path4532"
       inkscape:connector-curvature="0"
       inkscape:export-xdpi="300.0499"
       inkscape:export-ydpi="300.0499" />
  </g>
  <g
     inkscape:groupmode="layer"
     id="layer3"
     inkscape:label="text" />
  <g
     inkscape:groupmode="layer"
     id="layer6"
     inkscape:label="city"
     style="display:inline" />
  <g
     inkscape:groupmode="layer"
     id="layer5"
     inkscape:label="gps">
    <g
       id="g4601"
       transform="translate(0,2.0203051)"
       style="stroke:url(#linearGradient4615);stroke-opacity:1;stroke-width:1.0003125;stroke-miterlimit:4;stroke-dasharray:none"
       inkscape:export-xdpi="300.0499"
       inkscape:export-ydpi="300.0499">
      <text
         id="text4140"
         y="620.83203"
         x="148.54695"
         style="font-style:normal;font-weight:normal;line-height:0%;font-family:sans-serif;letter-spacing:0px;word-spacing:0px;fill:#ffffff;fill-opacity:1;stroke:url(#linearGradient4615);stroke-width:1.0003125;stroke-linecap:butt;stroke-linejoin:miter;stroke-miterlimit:4;stroke-dasharray:none;stroke-opacity:1"
         xml:space="preserve"><tspan
           transform="matrix(1.3297935,0,0,2.0619653,-97.084813,-639.48328)"
           style="font-style:normal;font-variant:normal;font-weight:normal;font-stretch:condensed;font-size:112.57635498px;line-height:1.25;font-family:Impact;-inkscape-font-specification:'Impact Condensed';fill:#ffffff;stroke:url(#linearGradient4615);stroke-width:0.60409177;stroke-miterlimit:4;stroke-dasharray:none;stroke-opacity:1"
           y="620.83203"
           x="148.54695"
           id="tspan4142"
           sodipodi:role="line">URB    N FIX</tspan></text>
      <path
         inkscape:connector-curvature="0"
         id="path4538"
         d="m 376.29206,626.17064 c 5.68857,-0.16615 13.10293,-1.14044 17.69703,-2.32551 9.1204,-2.35261 13.75967,-5.82279 13.41551,-10.0348 -0.32406,-3.96586 -4.91529,-6.75183 -13.79252,-8.36932 -1.49955,-0.27323 -3.35921,-0.56446 -4.13258,-0.64715 -0.77338,-0.0827 -1.57734,-0.1919 -1.7866,-0.24268 -0.27284,-0.0662 -0.8193,0.46513 -1.93102,1.87865 l -1.55054,1.9709 2.50801,0.4834 c 4.80166,0.9255 9.78756,2.65247 11.84195,4.10171 l 0.80976,0.57121 -0.77762,0.38305 c -2.7204,1.34001 -9.53523,2.28866 -17.92507,2.49527 -7.90349,0.19462 -21.84936,-0.61794 -27.11333,-1.57978 -2.42046,-0.44227 -5.14758,-1.24939 -5.929,-1.75476 -0.46081,-0.29801 -0.45357,-0.31632 0.34467,-0.87608 1.80264,-1.2641 7.63773,-3.17841 11.8138,-3.87576 1.10607,-0.18469 2.06172,-0.37743 2.12366,-0.42833 0.0619,-0.0511 -0.50332,-0.87679 -1.25604,-1.83538 -0.7528,-0.95859 -1.38573,-1.76897 -1.40653,-1.80087 -0.0208,-0.0318 -1.39328,0.0598 -3.04994,0.20401 -7.43013,0.64633 -12.33412,2.10106 -15.00553,4.45128 -1.6051,1.4121 -2.1238,2.47805 -2.10963,4.33527 0.0265,3.46701 3.81474,6.59897 11.06574,9.14886 7.86815,2.76668 16.64459,4.02444 26.14571,3.74695 z m -1.97916,-13.96307 c 0.50946,-0.66077 7.39242,-9.42837 15.29544,-19.4836 7.903,-10.05521 14.92309,-19.16613 15.6002,-20.24644 1.44901,-2.3119 2.87809,-5.79775 3.43666,-8.38274 0.60532,-2.8015 0.5142,-7.9824 -0.1909,-10.85334 -3.03129,-12.34221 -14.27516,-21.80087 -29.09131,-24.47242 -3.74698,-0.67562 -9.71795,-0.76485 -13.45562,-0.2011 -9.97832,1.50503 -18.44505,6.19278 -23.89492,13.22983 -1.10962,1.43274 -2.68767,4.22939 -3.51524,6.22963 -1.36706,3.3043 -1.83054,5.80086 -1.80721,9.73487 0.0232,3.92652 0.51616,6.39708 1.95337,9.79105 1.22708,2.89778 2.49754,4.85965 6.17328,9.53295 1.8004,2.28899 8.91244,11.39507 15.80455,20.23572 6.89211,8.84066 12.58381,16.07685 12.64822,16.08042 0.0644,0.003 0.534,-0.53408 1.04347,-1.19484 z m -5.79132,-38.70851 c -2.16723,-0.46086 -5.98226,-2.11336 -7.58517,-3.28556 -3.14703,-2.30142 -5.322,-5.17922 -6.33856,-8.38683 -0.68888,-2.17366 -0.71014,-5.46071 -0.0492,-7.59425 1.74738,-5.64008 6.84171,-9.82444 13.62781,-11.19358 2.58517,-0.52154 6.53996,-0.46244 9.13349,0.13653 6.81377,1.57362 11.94794,5.8897 13.80294,11.60357 0.70321,2.16609 0.72902,5.44117 0.0598,7.59441 -1.92695,6.20042 -7.93186,10.66603 -15.51515,11.53802 -1.76947,0.20345 -5.16204,0.007 -7.13601,-0.41231 z"
         style="fill:#e83724;fill-opacity:1;stroke:url(#linearGradient4615);stroke-width:1.0003125;stroke-miterlimit:4;stroke-dasharray:none;stroke-opacity:1" />
    </g>
    <text
       xml:space="preserve"
       style="font-style:normal;font-weight:normal;font-size:37.5px;line-height:722.84997559;font-family:sans-serif;letter-spacing:61.46249771px;word-spacing:0px;fill:#000000;fill-opacity:1;stroke:none;stroke-width:0.9375"
       x="334.29736"
       y="571.27704"
       id="text21"
       inkscape:export-xdpi="300.0499"
       inkscape:export-ydpi="300.0499"><tspan
         sodipodi:role="line"
         id="tspan19"
         x="334.29736"
         y="571.27704"
         style="stroke-width:0.9375">  </tspan></text>
  </g>
</svg>
